<svg xmlns="http://www.w3.org/2000/svg" viewBox="0 0 64 64" role="img" aria-label="Grilles">
  <rect width="64" height="64" rx="12" fill="#12151c" />
  <g>
    <rect x="9" y="9" width="14" height="14" rx="2.5" fill="#2c3342" />
    <rect x="25" y="9" width="14" height="14" rx="2.5" fill="#f4f6fa" />
    <rect x="41" y="9" width="14" height="14" rx="2.5" fill="#f4f6fa" />
    <rect x="9" y="25" width="14" height="14" rx="2.5" fill="#f4f6fa" />
    <rect x="25" y="25" width="14" height="14" rx="2.5" fill="#2c3342" />
    <rect x="41" y="25" width="14" height="14" rx="2.5" fill="#f4f6fa" />
    <rect x="9" y="41" width="14" height="14" rx="2.5" fill="#f4f6fa" />
    <rect x="25" y="41" width="14" height="14" rx="2.5" fill="#f4f6fa" />
    <rect x="41" y="41" width="14" height="14" rx="2.5" fill="#2c3342" />
    <path d="M13 16h7l-2.2-2.6h2.6L24 16l-3.6 2.6h-2.6L20 16h-7z" fill="#4c9fff" />
  </g>
</svg>
